<svg data-v-0dd9719b="" version="1.0" xmlns="http://www.w3.org/2000/svg" xmlns:xlink="http://www.w3.org/1999/xlink" width="100%" height="100%" viewBox="0 0 340.000000 250.000000" preserveAspectRatio="xMidYMid meet" color-interpolation-filters="sRGB" style="margin: auto;"> <rect data-v-0dd9719b="" x="0" y="0" width="100%" height="100%" fill="#333333" fill-opacity="0" class="background"></rect> <!----> <g data-v-0dd9719b="" fill="#ffffff" class="icon-text-wrapper icon-svg-group iconsvg" transform="translate(140.00191736221313,57.068267822265625)"><g class="iconsvg-imagesvg" transform="translate(0,0)"><g><rect fill="#ffffff" fill-opacity="0" stroke-width="2" x="0" y="0" width="60" height="63.74095675176085" class="image-rect"></rect> <svg filter="url(#colors8713161160)" x="0" y="0" width="60" height="63.74095675176085" filtersec="colorsf9822674260" class="image-svg-svg primary" style="overflow: visible;"><svg xmlns="http://www.w3.org/2000/svg" xmlns:xlink="http://www.w3.org/1999/xlink" version="1.1" x="0px" y="0px" viewBox="2.9200000762939453 0 94.13124084472656 100" xml:space="preserve"><path d="M95.92,48.14h-3.54c0.09-1.12,0.14-2.23,0.14-3.34c0-0.52-0.02-1.03-0.03-1.55c0-0.01,0-0.01,0-0.02  c0-0.01-0.01-0.02-0.01-0.03c-0.25-6.45-1.99-12.61-4.9-18.09c-0.04-0.19-0.11-0.38-0.25-0.54c-0.02-0.02-0.04-0.03-0.06-0.04  C81.66,14.36,71.97,6.61,60.23,3.79V3.61C60.23,1.62,58.6,0,56.61,0H44.04c-1.99,0-3.61,1.62-3.61,3.61v0.19  C28.73,6.6,19.07,14.3,13.45,24.41c-0.02,0.02-0.04,0.02-0.05,0.04c-0.14,0.16-0.21,0.34-0.25,0.53c-3.2,5.97-5,12.74-5,19.82  c0,1.12,0.06,2.23,0.15,3.34H4.08c-0.64,0-1.16,0.52-1.16,1.16v11.02c0,0.64,0.52,1.16,1.16,1.16h6.23v6.08  c0,0.64,0.52,1.16,1.16,1.16h4.47c0.8,3.22,2.06,6.29,3.76,9.15L16.4,81.2c-0.45,0.45-0.45,1.19,0,1.65L26.65,93.1  c0.23,0.23,0.52,0.34,0.82,0.34c0.3,0,0.6-0.11,0.82-0.34l3.25-3.25c2.93,1.79,6.1,3.11,9.45,3.95v5.04c0,0.64,0.52,1.16,1.16,1.16  h14.5c0.64,0,1.16-0.52,1.16-1.16v-5.02c3.42-0.85,6.67-2.22,9.69-4.08l3.77,3.77c0.23,0.23,0.52,0.34,0.82,0.34  s0.59-0.11,0.82-0.34l10.25-10.24c0.22-0.22,0.34-0.51,0.34-0.82c0-0.31-0.12-0.6-0.34-0.82l-3.94-3.94  c1.63-2.77,2.86-5.77,3.65-8.94h5.63c0.64,0,1.16-0.52,1.16-1.16v-6.08h6.23c0.64,0,1.16-0.52,1.16-1.16V49.3  C97.08,48.66,96.56,48.14,95.92,48.14z M78.57,48.14v-8.76c0-3.41,1.45-6.67,3.98-8.94l3.53-3.17c1.21,2.46,2.18,5.05,2.87,7.74  h-5.64c-0.64,0-1.16,0.52-1.16,1.16s0.52,1.16,1.16,1.16h6.16c0.3,1.56,0.51,3.14,0.62,4.74h-4.07c-0.64,0-1.16,0.52-1.16,1.16  s0.52,1.16,1.16,1.16h4.17c0,0.14,0.01,0.27,0.01,0.4c0,1.1-0.06,2.21-0.15,3.34H78.57z M44.04,2.33h12.56  c0.71,0,1.29,0.57,1.29,1.28v44.53h-3.83V20.37c0-0.64-0.52-1.16-1.16-1.16s-1.16,0.52-1.16,1.16v27.76h-8.98V3.61  C42.76,2.9,43.34,2.33,44.04,2.33z M40.44,6.19v41.95H24.62v-8.77c0-4.06-1.73-7.95-4.76-10.67l-4.09-3.67  C21.03,15.88,29.82,8.89,40.44,6.19z M10.47,44.8c0-0.14,0.01-0.27,0.01-0.4h4.46c0.64,0,1.16-0.52,1.16-1.16s-0.52-1.16-1.16-1.16  h-4.36c0.11-1.6,0.32-3.19,0.62-4.74h6.45c0.64,0,1.16-0.52,1.16-1.16S18.29,35,17.65,35h-5.93c0.7-2.73,1.69-5.37,2.93-7.86  l3.66,3.29c2.53,2.28,3.99,5.54,3.99,8.94v8.77H10.63C10.53,47.03,10.47,45.92,10.47,44.8z M94.75,59.16H21.17  c-0.64,0-1.16,0.52-1.16,1.16s0.52,1.16,1.16,1.16h4.97C26.86,73.98,37.36,84.01,50,84.01c4.74,0,9.32-1.38,13.25-4  c0.53-0.36,0.68-1.08,0.32-1.61c-0.36-0.54-1.08-0.68-1.61-0.32c-3.55,2.36-7.68,3.61-11.96,3.61c-11.36,0-20.81-8.98-21.54-20.2  h4.57c0.77,8.77,8.06,15.54,16.97,15.54c8.93,0,16.21-6.76,16.97-15.54h4.57c-0.35,5.53-2.74,10.63-6.84,14.43  c-0.47,0.44-0.5,1.17-0.06,1.64c0.23,0.25,0.54,0.37,0.85,0.37c0.28,0,0.57-0.1,0.79-0.31c4.58-4.25,7.24-9.96,7.59-16.14h13.49  v4.92h-5.36c-0.04,0-0.07,0.02-0.11,0.02c-0.07,0.01-0.14,0.02-0.21,0.04c-0.08,0.02-0.16,0.05-0.23,0.09  c-0.06,0.03-0.11,0.07-0.16,0.11c-0.07,0.05-0.13,0.11-0.18,0.17c-0.04,0.05-0.07,0.1-0.11,0.16c-0.04,0.08-0.08,0.15-0.1,0.24  c-0.01,0.03-0.03,0.06-0.04,0.09c-0.78,3.56-2.15,6.9-4.05,9.93c-0.02,0.03-0.02,0.06-0.04,0.1c-0.04,0.07-0.06,0.14-0.08,0.22  c-0.02,0.07-0.04,0.14-0.04,0.21c-0.01,0.07,0,0.14,0.01,0.22c0.01,0.08,0.02,0.15,0.04,0.22c0.02,0.07,0.05,0.13,0.09,0.2  c0.04,0.07,0.08,0.14,0.13,0.2c0.02,0.03,0.03,0.06,0.06,0.08l3.75,3.75l-8.61,8.59l-3.6-3.6c-0.03-0.03-0.06-0.04-0.09-0.06  c-0.06-0.05-0.12-0.09-0.19-0.13c-0.07-0.04-0.13-0.07-0.21-0.09c-0.07-0.02-0.14-0.03-0.21-0.04c-0.08-0.01-0.15-0.01-0.23,0  c-0.07,0.01-0.14,0.02-0.21,0.04c-0.08,0.02-0.15,0.05-0.22,0.09c-0.03,0.02-0.07,0.02-0.11,0.04c-3.28,2.14-6.85,3.65-10.64,4.48  c-0.04,0.01-0.06,0.03-0.1,0.04c-0.08,0.02-0.15,0.06-0.22,0.1c-0.06,0.04-0.12,0.07-0.18,0.12c-0.06,0.05-0.11,0.1-0.15,0.16  c-0.05,0.06-0.09,0.12-0.12,0.18c-0.03,0.06-0.06,0.13-0.08,0.2c-0.02,0.08-0.04,0.15-0.05,0.23c0,0.04-0.02,0.07-0.02,0.1v4.77  H43.33V92.9c0-0.04-0.02-0.07-0.02-0.1c-0.01-0.08-0.02-0.15-0.05-0.23c-0.02-0.07-0.05-0.14-0.08-0.2  c-0.03-0.07-0.08-0.12-0.12-0.18c-0.05-0.06-0.1-0.11-0.15-0.16c-0.06-0.05-0.11-0.08-0.18-0.12c-0.07-0.04-0.14-0.07-0.22-0.1  c-0.03-0.01-0.06-0.03-0.1-0.04c-3.73-0.82-7.24-2.29-10.42-4.35c-0.03-0.02-0.07-0.02-0.1-0.04c-0.07-0.04-0.14-0.06-0.22-0.09  c-0.07-0.02-0.14-0.04-0.22-0.04c-0.07-0.01-0.14,0-0.22,0c-0.08,0.01-0.15,0.02-0.22,0.04c-0.07,0.02-0.13,0.05-0.2,0.08  c-0.07,0.04-0.13,0.08-0.2,0.13c-0.03,0.02-0.06,0.03-0.09,0.06l-3.07,3.07l-8.61-8.61l3.12-3.13c0.03-0.03,0.03-0.06,0.06-0.09  c0.05-0.06,0.09-0.13,0.13-0.2c0.03-0.07,0.07-0.13,0.09-0.2c0.02-0.07,0.03-0.14,0.04-0.22c0.01-0.07,0.01-0.15,0.01-0.22  c-0.01-0.07-0.02-0.14-0.04-0.21c-0.02-0.08-0.05-0.15-0.08-0.22c-0.02-0.03-0.02-0.07-0.04-0.1c-1.97-3.13-3.38-6.54-4.17-10.14  c-0.01-0.04-0.04-0.07-0.05-0.11c-0.02-0.07-0.05-0.13-0.08-0.19c-0.04-0.07-0.08-0.14-0.13-0.2c-0.05-0.05-0.1-0.1-0.15-0.14  c-0.06-0.05-0.12-0.09-0.19-0.13c-0.07-0.03-0.13-0.06-0.2-0.08c-0.07-0.02-0.14-0.04-0.22-0.04c-0.04,0-0.07-0.02-0.11-0.02h-4.2  v-4.92h4.57c0.64,0,1.16-0.52,1.16-1.16s-0.52-1.16-1.16-1.16H5.25v-8.69H67.6c0.64,0,1.16-0.52,1.16-1.16s-0.52-1.16-1.16-1.16  h-7.37V6.19c10.66,2.72,19.48,9.75,24.73,18.96l-3.96,3.56c-3.02,2.72-4.76,6.61-4.76,10.68v8.76h-4.78c-0.64,0-1.16,0.52-1.16,1.16  s0.52,1.16,1.16,1.16h23.29V59.16z M64.64,61.48C63.89,68.97,57.65,74.7,50,74.7c-7.63,0-13.88-5.74-14.64-13.21H64.64z   M51.75,16.51V8.94c0-0.64,0.52-1.16,1.16-1.16s1.16,0.52,1.16,1.16v7.57c0,0.64-0.52,1.16-1.16,1.16S51.75,17.15,51.75,16.51z"></path></svg></svg> <defs><filter id="colors8713161160"><feColorMatrix type="matrix" values="0 0 0 0 0.99609375  0 0 0 0 0.35546875  0 0 0 0 0.359375  0 0 0 1 0" class="icon-fecolormatrix"></feColorMatrix></filter> <filter id="colorsf9822674260"><feColorMatrix type="matrix" values="0 0 0 0 0.99609375  0 0 0 0 0.99609375  0 0 0 0 0.99609375  0 0 0 1 0" class="icon-fecolormatrix"></feColorMatrix></filter> <filter id="colorsb6296082163"><feColorMatrix type="matrix" values="0 0 0 0 0  0 0 0 0 0  0 0 0 0 0  0 0 0 1 0" class="icon-fecolormatrix"></feColorMatrix></filter></defs></g></g> <g transform="translate(4.976400375366211,70.7409553527832)"><g data-gra="path-name" fill-rule="" class="tp-name iconsvg-namesvg" transform="translate(0,0)"><g transform="scale(1)"><g><path d="M12.98 4.13L12.98 4.13Q11.05 4.13 11.05 2.25L11.05 2.25 11.05-21.45Q8.47-13.04 5.45-8.09L5.45-8.09Q4.73-6.93 4.18-7.04 3.63-7.15 2.92-8.42L2.92-8.42Q2.48-9.13 2.48-9.63L2.48-9.63Q2.42-10.18 2.86-10.84L2.86-10.84Q5.17-14.41 7.37-19.86L7.37-19.86Q9.46-25.19 10.67-30.47L10.67-30.47 5.12-30.47Q3.25-30.47 3.25-32.4L3.25-32.4Q3.25-34.27 5.12-34.27L5.12-34.27 11.05-34.27 11.05-44.16Q11.05-46.04 12.98-46.04L12.98-46.04Q14.85-46.04 14.85-44.16L14.85-44.16 14.85-34.27 19.75-34.27Q21.61-34.27 21.61-32.4L21.61-32.4Q21.61-30.47 19.75-30.47L19.75-30.47 14.85-30.47 14.85-25.68Q17.05-22.99 21.29-16.77L21.29-16.77Q21.67-16.17 21.56-15.79L21.56-15.79Q21.5-15.51 21.01-14.85L21.01-14.85 20.9-14.74Q20.07-13.7 19.58-13.64L19.58-13.64Q18.98-13.59 18.43-14.69L18.43-14.69Q17.38-16.5 14.85-20.68L14.85-20.68 14.85 2.25Q14.85 4.13 12.98 4.13ZM50.66 1.38L26.68 1.38Q25.25 1.38 24.36 0.49 23.48-0.39 23.48-1.81L23.48-1.81 23.48-39.6Q23.48-41.03 24.36-41.91 25.25-42.79 26.68-42.79L26.68-42.79 49.72-42.79Q51.59-42.79 51.59-40.92 51.59-39.05 49.72-39.05L49.72-39.05 28.6-39.05Q27.45-39.05 27.45-37.9L27.45-37.9 27.45-3.52Q27.45-2.37 28.6-2.37L28.6-2.37 50.66-2.37Q52.52-2.37 52.52-0.49 52.52 1.38 50.66 1.38L50.66 1.38ZM32.51-7.15Q31.3-5.83 29.98-6.93L29.98-6.93Q28.38-8.14 29.86-9.73L29.86-9.73Q31.73-11.66 33.55-14.19L33.55-14.19Q35.97-17.55 37.9-21.29L37.9-21.29Q33.99-24.86 30.47-27.55L30.47-27.55Q29.09-28.66 30.41-29.98L30.41-29.98Q31.52-31.07 32.67-30.2L32.67-30.2Q35.86-27.83 39.55-24.7L39.55-24.7Q41.63-29.37 43.12-34.16L43.12-34.16Q43.67-36.13 45.65-35.48L45.65-35.48Q47.47-34.81 46.91-32.95L46.91-32.95Q44.83-26.79 42.52-22L42.52-22Q47.41-17.43 50.05-13.97L50.05-13.97Q50.55-13.31 50.44-12.76L50.44-12.76Q50.33-12.27 49.66-11.61L49.66-11.61Q48.84-10.78 48.23-10.72L48.23-10.72Q47.63-10.67 46.97-11.55L46.97-11.55Q44.72-14.57 40.76-18.54L40.76-18.54Q37.07-11.99 32.51-7.15L32.51-7.15Z" transform="translate(-2.4728000164031982, 46.040000915527344)"></path></g> <!----> <!----> <!----> <!----> <!----> <!----> <!----></g></g> <g data-gra="path-slogan" fill-rule="" class="tp-slogan iconsvg-slogansvg" fill="#ffffff" transform="translate(-5.117225646972656,56.170005798339844)"><!----> <!----> <g transform="scale(1, 1)"><g transform="scale(1)"><path d="M7.17-6.09L7.17-6.09L6.09-6.09Q6-7.73 3.94-7.83L3.94-7.83Q2.02-7.78 2.02-6.33L2.02-6.33Q2.02-5.39 3.05-5.25L3.05-5.25L5.48-4.69Q7.41-4.22 7.41-2.34L7.41-2.34Q7.36 0.05 4.03 0.14L4.03 0.14Q2.20 0.14 1.45-0.61L1.45-0.61Q0.52-1.31 0.56-2.77L0.56-2.77L1.69-2.77Q1.73-0.80 4.03-0.75L4.03-0.75Q6.28-0.80 6.33-2.20L6.33-2.20Q6.52-3.38 4.45-3.75L4.45-3.75L2.67-4.13Q0.84-4.64 0.84-6.19L0.84-6.19Q0.98-8.72 3.84-8.81L3.84-8.81Q7.08-8.81 7.17-6.09ZM10.03-5.06L14.53-5.06L14.53-8.58L15.70-8.58L15.70 0L14.53 0L14.53-3.98L10.03-3.98L10.03 0L8.86 0L8.86-8.58L10.03-8.58L10.03-5.06ZM23.16-3.19L23.16-8.58L24.33-8.58L24.33-3.05Q24.19 0.05 20.81 0.14L20.81 0.14Q17.67 0.05 17.53-2.86L17.53-2.86L17.53-8.58L18.70-8.58L18.70-3.19Q18.75-0.84 20.86-0.80L20.86-0.80Q23.16-0.84 23.16-3.19L23.16-3.19ZM35.72-6.09L35.72-6.09L34.64-6.09Q34.55-7.73 32.48-7.83L32.48-7.83Q30.56-7.78 30.56-6.33L30.56-6.33Q30.56-5.39 31.59-5.25L31.59-5.25L34.03-4.69Q35.95-4.22 35.95-2.34L35.95-2.34Q35.91 0.05 32.58 0.14L32.58 0.14Q30.75 0.14 30-0.61L30-0.61Q29.06-1.31 29.11-2.77L29.11-2.77L30.23-2.77Q30.28-0.80 32.58-0.75L32.58-0.75Q34.83-0.80 34.88-2.20L34.88-2.20Q35.06-3.38 33-3.75L33-3.75L31.22-4.13Q29.39-4.64 29.39-6.19L29.39-6.19Q29.53-8.72 32.39-8.81L32.39-8.81Q35.63-8.81 35.72-6.09ZM38.58-5.06L43.08-5.06L43.08-8.58L44.25-8.58L44.25 0L43.08 0L43.08-3.98L38.58-3.98L38.58 0L37.41 0L37.41-8.58L38.58-8.58L38.58-5.06ZM47.34-1.03L52.50-1.03L52.50 0L46.17 0L46.17-8.58L52.41-8.58L52.41-7.59L47.34-7.59L47.34-4.92L52.03-4.92L52.03-3.89L47.34-3.89L47.34-1.03ZM55.41-8.58L59.72-1.64L59.72-8.58L60.84-8.58L60.84 0L59.53 0L55.17-6.94L55.13-6.94L55.13 0L54 0L54-8.58L55.41-8.58Z" transform="translate(-0.5602678571428572, 8.8125)"></path></g></g></g></g></g><defs v-gra="od"></defs></svg>